<?xml version="1.0" encoding="utf-8"?>
<!-- Generator: Adobe Illustrator 19.2.1, SVG Export Plug-In . SVG Version: 6.00 Build 0)  -->
<svg version="1.1" id="Layer_1" xmlns="http://www.w3.org/2000/svg" xmlns:xlink="http://www.w3.org/1999/xlink" x="0px" y="0px"
	 viewBox="0 0 60 60" style="enable-background:new 0 0 60 60;" xml:space="preserve">
<style type="text/css">
	.st0{fill:#1A1B18;}
</style>
<path class="st0" d="M30,1c15.9,0,29,13,29,29S45.9,59,30,59S1,45.9,1,30S14,1,30,1 M30,0C13.4,0,0,13.4,0,30s13.4,30,30,30
	s30-13.4,30-30S46.6,0,30,0z"/>
<g>
	<path d="M27.6,22.9c0.2,0,0.5,0,0.7,0c1.3,0,1.6,0.1,2.1,0.2c0.4,0.1,0.5,0.1,0.4,2.4c0,0.6-0.1,1.4-0.1,2.2c0,0.2,0,0.4,0,0.6
		c0,1.2-0.1,2.8,1.1,3.5c0.2,0.1,0.5,0.2,0.7,0.2c0.8,0,1.8-0.5,4-4.2c1-1.7,1.7-3.6,1.9-3.9c0,0,0-0.1,0.1-0.1c0,0,0,0,0,0l0.1,0
		l0.1,0l4.9,0l0.1,0l0,0c0,0,0.1,0,0.3,0c0.2,0,0.3,0,0.4,0c-0.1,0.4-0.5,1.4-2.4,4c-0.4,0.6-0.8,1-1.1,1.4
		c-2.4,3.1-2.6,3.7,0.2,6.2l0.1,0.1c1.5,1.4,2.6,2.6,3,3.5l0,0.1c0.1,0.2,0.1,0.3,0.2,0.3c-0.1,0.1-0.4,0.2-0.6,0.2l-4.3,0.1l-0.1,0
		l-0.1,0c0,0,0,0-0.1,0c-0.2,0-0.7-0.1-1.4-0.5c-0.5-0.4-1.1-1-1.7-1.7c-1-1.2-1.9-2.1-3-2.1c-0.2,0-0.3,0-0.5,0.1
		c-1.8,0.6-1.8,3.3-1.8,3.9c0,0,0,0.1,0,0.2c-0.1,0-0.2,0.1-0.3,0.1h-1.9l0,0l0,0c0,0,0,0-0.1,0c-0.7,0-4.1-0.2-7.2-3.4
		c-3.7-3.9-7.1-11.4-7.5-12.4c0,0,0,0,0.1,0l4.6,0c0.1,0,0.2,0.1,0.3,0.1c0,0,0.1,0.1,0.1,0.1c0,0.1,0.8,2,1.8,3.7
		c1.8,3.2,2.9,4.3,4,4.3c0.3,0,0.5-0.1,0.8-0.2c1.2-0.7,1.3-3.4,1.2-5.6c0-0.4,0-1.9-0.7-2.7c-0.1-0.2-0.3-0.3-0.4-0.4
		C25.9,23,26.7,22.9,27.6,22.9 M27.6,22c-1.4,0-2.6,0.1-3.4,0.4c-0.6,0.3-1,0.9-0.7,0.9c0.3,0,1.1,0.2,1.4,0.7
		c0.5,0.7,0.5,2.2,0.5,2.2s0.3,4.2-0.7,4.8c-0.1,0.1-0.2,0.1-0.3,0.1c-0.6,0-1.5-1-3.2-3.8c-1-1.7-1.7-3.6-1.7-3.6s-0.1-0.4-0.4-0.5
		c-0.3-0.2-0.8-0.3-0.8-0.3l-4.7,0c0,0-0.7,0-1,0.3c-0.2,0.3,0,0.8,0,0.8s3.6,8.5,7.8,12.8c3.3,3.5,7.1,3.7,7.9,3.7
		c0.1,0,0.2,0,0.2,0h1.9c0,0,0.6-0.1,0.9-0.4c0.3-0.3,0.3-0.9,0.3-0.9s0-2.6,1.2-3c0.1,0,0.1,0,0.2,0c1.2,0,2.6,2.6,4.1,3.7
		c0.9,0.6,1.6,0.7,1.9,0.7c0.2,0,0.2,0,0.2,0l4.4-0.1c0,0,2.3-0.1,1.2-1.9c-0.1-0.1-0.6-1.3-3.2-3.7c-2.7-2.5-2.4-2.1,0.9-6.5
		c2-2.7,2.8-4.3,2.6-5c-0.2-0.4-0.8-0.5-1.3-0.5c-0.2,0-0.4,0-0.4,0l-4.9,0c0,0-0.1,0-0.1,0c-0.1,0-0.3,0-0.5,0.1
		c-0.3,0.2-0.4,0.5-0.4,0.5s-0.8,2.1-1.8,3.8c-1.8,3.1-2.7,3.7-3.2,3.7c-0.1,0-0.2,0-0.2-0.1c-0.8-0.5-0.6-2.2-0.6-3.3
		c0-3.6,0.5-5.1-1.1-5.5C30,22.1,29.6,22,28.3,22C28,22,27.8,22,27.6,22L27.6,22z"/>
</g>
</svg>
